<svg width="132" height="70" viewBox="0 0 132 70" fill="none" xmlns="http://www.w3.org/2000/svg">
<path d="M18.544 67.48C17.712 67.48 17.04 67.384 16.528 67.192C16.016 67.064 15.76 66.808 15.76 66.424C15.76 65.976 16.016 65.624 16.528 65.368C17.04 65.112 17.84 64.888 18.928 64.696C21.36 64.248 23.216 63.48 24.496 62.392C25.776 61.24 26.416 59.512 26.416 57.208V19.96C26.416 17.016 26.352 14.776 26.224 13.24C26.096 11.64 25.872 10.52 25.552 9.88C25.296 9.24 24.912 8.888 24.4 8.824C23.504 8.632 22.544 8.536 21.52 8.536C20.56 8.472 19.248 8.44 17.584 8.44H13.072C11.536 8.44 10 8.76 8.464 9.4C6.992 9.976 5.904 10.904 5.2 12.184C5.008 12.504 4.688 12.984 4.24 13.624C3.792 14.2 3.312 14.712 2.8 15.16C2.288 15.608 1.776 15.832 1.264 15.832C1.008 15.832 0.816 15.704 0.688 15.448C0.624 15.192 0.592 14.904 0.592 14.584C0.592 13.944 0.752 13.304 1.072 12.664C1.968 10.808 2.608 9.176 2.992 7.768C3.44 6.296 3.792 4.568 4.048 2.584C4.176 1.496 4.4 0.855997 4.72 0.663996C5.104 0.471998 5.424 0.375999 5.68 0.375999C5.936 0.375999 6.32 0.759998 6.832 1.528C7.408 2.296 7.824 2.936 8.08 3.44799C8.464 4.088 9.328 4.568 10.672 4.888C12.08 5.208 13.456 5.368 14.8 5.368H48.592C50.832 5.368 52.656 5.24 54.064 4.984C55.472 4.728 56.688 4.376 57.712 3.928C58.48 3.544 59.088 3.128 59.536 2.68C60.048 2.232 60.688 2.008 61.456 2.008C61.648 2.008 61.808 2.264 61.936 2.776C62.064 3.224 62.128 3.70399 62.128 4.216C62.128 4.536 62.064 4.984 61.936 5.56C61.872 6.136 61.808 6.584 61.744 6.904C61.552 8.056 61.36 8.888 61.168 9.4C61.04 9.912 60.944 10.36 60.88 10.744C60.816 11.128 60.784 11.736 60.784 12.568V13.72C60.784 14.296 60.656 14.968 60.4 15.736C60.144 16.44 59.76 16.792 59.248 16.792C58.8 16.792 58.448 16.44 58.192 15.736C57.936 15.032 57.68 14.072 57.424 12.856C57.168 11.512 56.4 10.456 55.12 9.688C53.84 8.856 51.664 8.44 48.592 8.44H38.896C37.488 8.44 36.432 8.632 35.728 9.016C35.024 9.4 34.576 10.36 34.384 11.896C34.192 13.432 34.096 15.96 34.096 19.48V57.208C34.096 59.512 34.768 61.24 36.112 62.392C37.456 63.48 39.312 64.248 41.68 64.696C42.768 64.888 43.568 65.112 44.08 65.368C44.592 65.624 44.848 65.976 44.848 66.424C44.848 66.808 44.592 67.064 44.08 67.192C43.568 67.384 42.896 67.48 42.064 67.48C40.336 67.48 38.896 67.416 37.744 67.288C36.656 67.224 35.6 67.16 34.576 67.096C33.552 67.032 32.304 67 30.832 67C29.232 67 27.824 67.032 26.608 67.096C25.456 67.16 24.24 67.224 22.96 67.288C21.744 67.416 20.272 67.48 18.544 67.48ZM123.465 69.016C121.673 69.016 119.977 68.856 118.377 68.536C116.777 68.28 115.305 67.768 113.961 67C112.617 66.232 111.369 65.176 110.217 63.832C108.681 61.912 107.209 60.088 105.801 58.36C104.393 56.568 102.889 54.52 101.289 52.216C99.7525 49.912 97.8645 46.968 95.6245 43.384C94.6645 41.784 93.2885 40.536 91.4965 39.64C90.0885 38.936 88.6805 38.456 87.2725 38.2C85.9285 37.88 84.8085 37.688 83.9125 37.624C83.4005 37.56 83.0165 37.72 82.7605 38.104C82.5685 38.488 82.4725 38.968 82.4725 39.544V56.44C82.4725 58.488 82.9525 60.28 83.9125 61.816C84.8725 63.288 86.5365 64.248 88.9045 64.696C89.9925 64.888 90.7925 65.112 91.3045 65.368C91.8165 65.624 92.0725 65.976 92.0725 66.424C92.0725 66.808 91.8165 67.064 91.3045 67.192C90.7925 67.384 90.1205 67.48 89.2885 67.48C87.5605 67.48 86.2165 67.416 85.2565 67.288C84.3605 67.16 83.5285 67.064 82.7605 67C82.0565 66.872 81.0965 66.808 79.8805 66.808C78.2805 66.808 76.8405 66.872 75.5605 67C74.3445 67.064 73.0965 67.16 71.8165 67.288C70.6005 67.416 69.1285 67.48 67.4005 67.48C66.5685 67.48 65.8965 67.384 65.3845 67.192C64.8725 67.064 64.6165 66.808 64.6165 66.424C64.6165 65.656 65.6725 65.08 67.7845 64.696C70.2165 64.248 71.9765 63.512 73.0645 62.488C74.2165 61.464 74.7925 59.768 74.7925 57.4V16.504C74.7925 14.072 74.6645 12.248 74.4085 11.032C74.2165 9.752 73.7045 8.856 72.8725 8.344C72.1045 7.832 70.7925 7.48 68.9365 7.288C67.8485 7.16 67.0485 6.936 66.5365 6.616C66.0245 6.232 65.7685 5.816 65.7685 5.368C65.7685 4.984 66.0245 4.728 66.5365 4.6C67.0485 4.408 67.7205 4.31199 68.5525 4.31199C70.2805 4.31199 71.5605 4.31199 72.3925 4.31199C73.2885 4.31199 74.1205 4.344 74.8885 4.408C75.6565 4.408 76.6805 4.408 77.9605 4.408C79.1765 4.408 80.2645 4.376 81.2245 4.31199C82.1845 4.184 83.2405 4.088 84.3925 4.024C85.6085 3.96 87.1445 3.928 89.0005 3.928C96.0405 3.928 101.385 5.24 105.033 7.86399C108.745 10.488 110.601 14.424 110.601 19.672C110.601 22.552 110.025 25.048 108.873 27.16C107.721 29.208 106.281 30.936 104.553 32.344C102.825 33.752 101.065 34.904 99.2725 35.8C99.0165 35.864 98.8885 36.024 98.8885 36.28C98.9525 36.472 99.0805 36.728 99.2725 37.048C101.257 40.056 103.145 42.904 104.937 45.592C106.793 48.28 108.809 50.904 110.985 53.464C113.161 56.024 115.753 58.68 118.76 61.432C120.425 62.904 122.121 63.8 123.849 64.12C125.577 64.44 127.561 64.6 129.801 64.6C130.761 64.6 131.241 64.952 131.241 65.656C131.241 66.616 130.761 67.32 129.801 67.768C128.841 68.28 127.753 68.6 126.537 68.728C125.321 68.92 124.297 69.016 123.465 69.016ZM87.5605 35.416C90.5045 35.416 93.0325 34.744 95.1445 33.4C97.3205 32.056 98.9845 30.296 100.137 28.12C101.353 25.944 101.961 23.64 101.961 21.208C101.961 18.584 101.609 16.184 100.905 14.008C100.265 11.832 98.9205 10.104 96.8725 8.824C94.8885 7.48 91.8805 6.808 87.8485 6.808C85.8005 6.808 84.4565 7.48 83.8165 8.824C83.1765 10.104 82.7925 12.408 82.6645 15.736C82.6005 17.336 82.5365 19.512 82.4725 22.264C82.4725 24.952 82.4725 28.216 82.4725 32.056C82.4725 33.656 82.9205 34.616 83.8165 34.936C84.7125 35.256 85.9605 35.416 87.5605 35.416Z" fill="#1C1D21"/>
</svg>
